<?xml version="1.0" standalone="no"?>
<!DOCTYPE svg PUBLIC "-//W3C//DTD SVG 20010904//EN"
 "http://www.w3.org/TR/2001/REC-SVG-20010904/DTD/svg10.dtd">
<svg version="1.0" xmlns="http://www.w3.org/2000/svg"
 width="400.000000pt" height="400.000000pt" viewBox="0 0 400.000000 400.000000"
 preserveAspectRatio="xMidYMid meet">

<g transform="translate(0.000000,400.000000) scale(0.100000,-0.100000)"
fill="#000000" stroke="none">
<path d="M0 3721 l0 -279 50 27 c36 19 52 23 60 15 9 -9 8 -18 -2 -35 -15 -27
-88 -99 -100 -99 -14 0 -10 -150 5 -151 38 -4 64 6 84 29 18 22 21 35 17 67
-7 53 13 70 92 79 53 6 63 4 79 -14 18 -19 18 -22 2 -38 -14 -14 -21 -14 -37
-4 -30 18 -48 15 -75 -14 -17 -19 -25 -39 -25 -64 0 -53 -18 -70 -85 -83 l-60
-12 -3 -247 -2 -248 59 0 c69 0 96 -20 107 -78 8 -41 -6 -124 -22 -129 -16 -5
-37 42 -36 79 1 45 -13 58 -64 58 l-44 0 0 -392 0 -393 25 30 c13 17 38 59 56
95 17 36 38 71 47 78 14 11 18 7 28 -29 11 -37 10 -158 -2 -217 -3 -13 -22
-42 -43 -65 -21 -23 -54 -68 -74 -100 l-37 -57 0 -765 0 -765 2000 0 2000 0 0
1895 0 1895 -57 -30 c-34 -17 -102 -38 -163 -51 -89 -18 -126 -20 -240 -15
-74 3 -164 12 -200 20 -64 14 -222 70 -290 103 -57 28 -155 101 -194 144 l-37
40 -248 -2 c-238 -1 -248 -2 -244 -20 4 -13 0 -19 -10 -19 -8 0 -17 -4 -19 -8
-1 -4 -16 -17 -33 -29 -22 -15 -47 -21 -92 -22 -39 -1 -63 3 -63 10 0 5 -5 7
-10 4 -6 -4 3 -19 21 -36 l31 -29 -4 -119 c-2 -79 -7 -124 -16 -133 -13 -13
-142 -19 -142 -6 0 15 -59 8 -97 -11 -21 -10 -53 -22 -72 -25 -30 -5 -32 -4
-20 11 13 15 12 15 -8 5 -12 -7 -26 -18 -30 -25 -17 -27 -70 -56 -98 -53 -15
2 -43 -1 -62 -6 -18 -5 -42 -7 -52 -3 -22 7 -41 46 -41 85 0 17 -5 30 -10 30
-21 0 -71 -31 -65 -41 4 -5 11 -7 16 -4 5 4 9 -1 9 -9 0 -9 5 -16 10 -16 6 0
10 -7 10 -15 0 -8 -7 -15 -15 -15 -8 0 -15 6 -15 14 0 8 -7 16 -15 20 -13 4
-13 2 -5 -14 5 -10 10 -48 10 -84 0 -62 1 -66 23 -66 12 0 29 -5 37 -10 12 -8
9 -15 -21 -45 -34 -34 -40 -37 -109 -39 -83 -4 -103 -18 -93 -67 3 -16 1 -29
-4 -29 -5 0 -15 -11 -21 -24 -11 -24 -48 -36 -121 -38 l-31 -1 -1 -71 c-1 -39
-2 -86 -3 -104 0 -19 2 -36 7 -39 14 -8 7 -42 -10 -51 -10 -5 -73 -10 -141
-11 -105 -2 -123 0 -128 14 -10 26 13 39 62 37 39 -1 44 1 34 13 -6 8 -9 19
-5 25 3 5 -1 20 -9 32 -9 12 -16 35 -16 51 0 22 -4 28 -15 23 -8 -3 -21 2 -30
10 -27 27 -3 51 60 59 36 4 55 11 55 20 0 8 12 15 28 17 27 4 23 8 -23 23 -10
3 -15 17 -15 40 0 26 -7 43 -26 60 -15 14 -30 22 -35 19 -15 -9 -38 23 -38 52
0 16 -3 45 -6 65 -6 31 -2 41 22 70 17 19 34 42 39 51 5 9 42 51 83 92 49 52
81 76 96 76 24 0 75 -43 110 -94 19 -27 22 -28 43 -15 13 8 25 24 28 37 4 12
9 22 13 23 3 1 25 2 48 3 63 3 93 37 58 66 -12 10 -18 10 -30 0 -12 -10 -24
-9 -59 4 -45 17 -90 19 -363 14 -103 -2 -156 -7 -164 -15 -7 -7 -14 -32 -16
-55 -2 -24 -6 -59 -9 -79 -3 -20 -1 -53 5 -73 10 -38 -1 -86 -21 -86 -4 0 -8
-8 -8 -17 0 -14 -4 -12 -17 7 -15 21 -18 49 -19 163 0 75 -3 139 -5 141 -9 7
-129 -7 -129 -15 0 -5 8 -9 18 -9 29 0 54 -53 46 -97 -4 -21 -11 -46 -16 -56
-6 -11 -6 -23 0 -30 20 -26 20 -59 1 -90 -20 -34 -25 -72 -10 -81 20 -13 19
-61 -2 -84 -18 -19 -19 -27 -11 -50 12 -31 7 -102 -7 -102 -15 0 -10 -42 7
-61 17 -18 12 -55 -5 -44 -5 3 -11 -5 -13 -17 -5 -34 -27 -33 -42 4 -20 46
-51 70 -81 62 -30 -7 -32 4 -9 48 11 22 13 33 5 41 -13 13 -15 47 -2 47 6 0
13 -4 16 -10 11 -17 24 -11 31 15 3 14 11 25 16 25 7 0 8 41 3 118 -4 64 -8
185 -10 267 -2 83 -7 160 -10 171 -9 28 29 64 64 64 14 -1 47 2 73 6 34 5 63
1 111 -15 48 -15 73 -18 90 -12 24 9 530 29 849 34 165 2 167 2 195 29 33 31
91 48 150 44 79 -6 26 19 -62 28 -16 2 -82 9 -145 15 -63 7 -344 17 -625 22
-280 5 -564 12 -629 15 -128 6 -136 3 -136 -47 0 -39 -45 -200 -68 -244 -41
-80 -162 -205 -198 -205 -20 0 1 66 35 109 60 75 141 285 141 363 l0 28 -160
0 -160 0 0 -279z m2900 -111 c234 -6 553 -14 710 -19 l285 -9 28 -32 c27 -31
28 -36 23 -99 -9 -112 -25 -385 -36 -626 -6 -126 -17 -315 -25 -420 -8 -104
-17 -234 -21 -289 -5 -77 -10 -102 -25 -117 -10 -10 -23 -19 -28 -19 -16 0
-22 32 -12 64 6 17 15 148 21 291 17 426 29 707 41 932 6 116 8 216 5 221 -11
18 -90 21 -768 28 -530 5 -691 4 -702 -5 -12 -10 -23 -7 -55 14 -45 28 -50 44
-23 67 36 32 3 31 582 18z m-2143 -72 c-3 -8 -6 -5 -6 6 -1 11 2 17 5 13 3 -3
4 -12 1 -19z m2757 -99 c30 -24 34 -63 9 -91 -24 -27 -49 -22 -72 16 -26 41
-27 65 -3 82 24 18 35 17 66 -7z m-743 -98 c-6 -10 -17 -23 -25 -31 -21 -17
-21 3 0 35 18 28 40 24 25 -4z m-2034 1 c25 -16 -6 -92 -36 -92 -12 0 -15 82
-4 93 8 9 25 9 40 -1z m2269 -23 c16 -17 16 -22 4 -29 -11 -7 -20 -3 -32 13
-10 12 -18 25 -18 30 0 14 27 7 46 -14z m-846 -70 c120 10 200 -6 324 -65 95
-45 152 -148 163 -293 l6 -74 -34 6 c-19 3 -54 13 -79 22 -74 28 -260 6 -260
-31 0 -29 -156 -13 -199 20 -7 5 -20 12 -30 14 -31 8 -146 8 -196 -1 -76 -12
-95 -15 -157 -22 -57 -6 -57 -7 -152 -107 -53 -56 -98 -110 -102 -121 -10 -33
-22 0 -24 67 -1 34 -1 66 -2 71 -1 35 11 108 19 114 10 6 26 90 32 158 1 7 8
10 16 7 8 -4 15 -1 15 4 0 6 25 35 55 66 30 30 55 59 55 65 0 23 53 49 113 56
34 4 89 16 122 26 85 25 109 28 210 22 50 -3 97 -5 105 -4z m615 -29 c9 -17
15 -50 14 -74 -3 -50 16 -86 59 -113 15 -10 41 -33 58 -51 21 -21 37 -30 48
-26 9 3 16 10 16 14 0 11 56 67 72 72 8 3 9 12 0 35 -11 34 -7 66 16 101 21
33 40 27 53 -17 10 -35 9 -44 -10 -76 -27 -45 -27 -65 0 -65 33 0 58 -18 79
-60 25 -49 26 -92 1 -114 -10 -10 -21 -33 -23 -52 -3 -27 1 -37 19 -49 27 -18
30 -56 7 -79 -30 -31 -59 -14 -70 41 -4 22 -14 32 -37 40 -65 22 -106 24 -142
7 -46 -21 -69 -13 -60 23 3 14 14 36 24 48 11 16 16 35 13 63 -4 38 -7 42 -37
48 -48 9 -98 64 -97 106 2 47 -7 68 -28 68 -25 0 -60 46 -60 78 0 30 26 62 51
62 10 0 25 -13 34 -30z m-2445 -20 c0 -19 -11 -26 -23 -14 -8 8 3 34 14 34 5
0 9 -9 9 -20z m30 -184 c0 -7 -9 -25 -20 -38 -10 -14 -17 -28 -13 -31 3 -4 0
-14 -8 -24 -11 -13 -11 -15 -1 -9 21 13 11 -35 -10 -48 -32 -19 -42 6 -19 45
12 19 21 49 21 68 0 21 7 39 17 47 20 14 33 10 33 -10z m2954 -89 c26 -19 5
-57 -30 -57 -29 0 -40 21 -24 49 12 24 29 26 54 8z m-2434 -7 c0 -5 -7 -10
-16 -10 -8 0 -12 5 -9 10 3 6 10 10 16 10 5 0 9 -4 9 -10z m-627 -37 c4 -2 7
-11 7 -19 0 -18 -85 -20 -97 -1 -20 31 -12 38 35 31 26 -4 50 -8 55 -11z m307
-3 c6 -11 8 -25 5 -30 -3 -6 -1 -10 6 -10 10 0 10 -3 1 -12 -27 -27 0 -67 45
-68 12 0 25 -5 28 -10 9 -14 -13 -40 -34 -40 -20 0 -74 53 -64 63 3 4 1 7 -6
7 -18 0 -33 51 -26 87 7 37 29 43 45 13z m187 -41 c12 -12 6 -49 -8 -49 -5 0
-9 -6 -9 -14 0 -9 -7 -12 -19 -9 -11 3 -18 10 -16 16 25 72 30 78 52 56z m629
-37 c16 -10 24 -62 10 -63 -6 0 -32 0 -58 1 -62 2 -152 -15 -273 -53 -83 -25
-115 -41 -188 -95 -91 -67 -195 -181 -253 -277 -32 -53 -94 -216 -121 -320
-14 -51 -15 -77 -5 -175 10 -114 30 -210 43 -210 3 0 12 -21 19 -47 8 -27 16
-50 20 -53 4 -3 17 -25 30 -50 14 -25 31 -53 39 -63 8 -9 11 -20 8 -23 -3 -4
0 -13 8 -21 17 -17 19 -33 5 -33 -5 0 -10 6 -10 14 0 8 -8 17 -18 20 -19 6
-76 88 -105 151 -43 92 -86 261 -93 366 -10 129 37 323 105 434 49 81 140 205
149 205 7 0 52 38 113 94 14 13 43 33 65 45 21 12 60 35 85 50 102 63 383 131
425 103z m357 -14 c-11 -13 -28 -34 -38 -48 l-17 -25 6 30 c7 30 38 65 59 65
6 0 1 -10 -10 -22z m902 2 c3 -5 2 -10 -4 -10 -5 0 -13 5 -16 10 -3 6 -2 10 4
10 5 0 13 -4 16 -10z m-101 -14 c18 -7 43 -30 56 -51 12 -20 25 -33 29 -28 3
5 16 10 29 10 28 2 29 -20 1 -59 l-22 -30 22 -21 c22 -22 22 -22 37 -3 8 11
14 15 14 9 0 -7 -7 -18 -15 -27 -21 -20 -19 -26 10 -26 14 0 34 -9 45 -20 22
-22 20 -45 -5 -105 -7 -16 -21 -55 -31 -85 -9 -30 -23 -64 -30 -75 -8 -11 -14
-30 -14 -43 0 -29 -39 -122 -52 -122 -5 0 -8 -6 -7 -12 3 -23 -1 -38 -8 -36
-20 4 -43 -17 -43 -38 0 -13 -5 -24 -11 -24 -5 0 -8 -4 -4 -9 3 -5 1 -12 -5
-16 -5 -3 -10 -15 -10 -27 0 -19 -2 -19 -23 -5 -23 15 -64 6 -52 -12 2 -5 -4
-16 -15 -26 -14 -12 -18 -26 -14 -49 2 -17 2 -25 -2 -18 -10 20 -24 14 -24
-11 0 -24 -21 -30 -47 -14 -7 4 -16 0 -21 -9 -9 -15 -12 -15 -41 -1 -31 16
-36 12 -33 -23 0 -3 -13 -7 -29 -8 -22 -2 -29 2 -30 15 0 11 -3 13 -6 6 -8
-21 -20 -15 -28 15 l-7 27 -19 -23 c-12 -15 -23 -21 -31 -16 -7 5 -21 7 -30 6
-12 -2 -18 3 -18 15 0 14 -2 15 -9 4 -13 -20 -61 48 -61 87 0 21 -5 32 -14 32
-7 0 -19 7 -26 15 -7 9 -21 13 -31 10 -22 -7 -59 23 -59 47 0 10 -4 18 -10 18
-5 0 -10 6 -10 14 0 18 -30 30 -44 16 -16 -16 -30 -12 -15 6 10 13 10 17 -2
25 -20 12 -29 11 -29 -4 0 -8 -7 -14 -15 -14 -9 0 -15 10 -15 24 0 13 -6 23
-14 23 -7 0 -16 9 -19 20 -3 11 -19 28 -36 37 -17 10 -31 21 -31 25 0 14 -34
47 -42 42 -5 -3 -8 -2 -7 3 4 14 -13 63 -21 63 -14 0 -3 -175 14 -207 18 -36
50 -124 62 -168 4 -16 8 -34 10 -40 2 -5 5 -20 8 -33 3 -12 7 -26 11 -31 3 -5
0 -13 -6 -16 -5 -4 -8 -13 -5 -21 8 -20 -10 -17 -55 8 -27 15 -39 29 -39 44 0
12 -11 29 -25 38 -14 9 -25 26 -25 37 0 11 -9 36 -19 57 -10 20 -19 39 -19 42
-2 19 -16 38 -25 35 -7 -3 -44 -6 -83 -8 -91 -5 -135 -30 -169 -98 -14 -26
-25 -55 -25 -64 0 -9 -6 -18 -14 -21 -8 -3 -12 -12 -9 -20 4 -11 9 -12 16 -5
12 12 71 -72 65 -91 -3 -7 6 -21 19 -31 23 -19 46 -19 99 -2 14 4 27 1 38 -10
13 -14 22 -15 51 -5 29 10 35 17 40 48 11 63 14 60 12 -11 0 -38 -5 -70 -9
-73 -4 -3 -4 -12 -1 -21 5 -12 2 -15 -10 -10 -11 4 -17 1 -17 -9 0 -8 -4 -13
-9 -9 -6 3 -15 -5 -22 -17 -13 -25 -28 -38 -44 -38 -5 1 -2 5 8 11 9 5 17 21
17 35 0 21 -4 24 -20 19 -35 -11 -128 -8 -157 4 -47 20 -126 141 -143 217 -6
24 -7 68 -4 97 5 46 13 60 63 114 31 33 75 71 97 82 43 23 63 23 194 2 30 -5
57 -7 59 -6 2 2 -12 23 -32 47 -19 24 -49 72 -67 108 -18 36 -38 72 -45 80
-20 23 -27 86 -15 129 16 60 39 72 125 64 69 -5 71 -5 89 22 10 15 19 38 21
52 3 27 93 125 107 117 5 -4 8 -25 7 -49 -2 -30 3 -50 18 -71 l22 -29 -10 44
c-5 24 -8 51 -6 60 3 10 5 7 6 -7 0 -13 11 -36 23 -52 25 -34 47 -36 163 -16
56 10 72 17 81 35 12 23 28 14 19 -11 -7 -16 86 -21 97 -4 5 8 10 8 19 -1 8
-8 8 -17 -1 -34 -10 -19 -10 -22 0 -12 7 6 19 9 26 6 15 -5 26 17 41 84 6 23
6 40 2 37 -14 -8 -11 20 3 34 7 7 27 12 45 12 42 0 65 -33 61 -87 -2 -26 1
-37 9 -36 7 2 20 -13 29 -32 16 -34 50 -63 61 -52 2 3 -4 8 -15 11 -16 5 -42
44 -42 63 0 3 26 3 59 0 64 -5 72 -3 90 32 10 17 16 20 24 12 9 -9 8 -16 0
-30 -11 -18 -8 -19 38 -23 28 -1 52 -1 54 2 2 3 -3 20 -11 37 -18 36 -50 52
-116 60 -27 3 -51 9 -53 14 -9 13 47 49 77 49 16 0 44 -6 62 -14z m160 -8 c11
-16 15 -42 14 -88 l-2 -65 -3 60 c-5 83 -9 92 -32 71 -22 -20 -36 -7 -26 24 8
26 30 25 49 -2z m-768 -2 c26 -20 12 -31 -55 -45 -30 -6 -77 -23 -105 -37
l-51 -25 35 37 c49 54 61 63 95 73 44 13 59 13 81 -3z m384 -26 c-7 -4 -10
-15 -7 -24 3 -8 2 -18 -3 -21 -11 -7 -14 48 -4 58 4 4 11 4 16 0 6 -3 5 -9 -2
-13z m-193 -52 c-3 -8 -6 -5 -6 6 -1 11 2 17 5 13 3 -3 4 -12 1 -19z m834 -40
c13 -24 3 -55 -21 -68 -41 -22 -76 51 -50 101 10 18 12 18 36 3 14 -9 29 -25
35 -36z m737 -80 c3 -29 -27 -54 -54 -44 -17 7 -19 62 -1 70 28 12 52 1 55
-26z m-3536 -158 c6 -19 -4 -140 -12 -135 -11 7 -12 145 -1 145 5 0 11 -4 13
-10z m2642 -106 c20 -8 21 -48 1 -64 -18 -15 -52 -4 -58 18 -3 17 19 52 34 52
4 0 14 -3 23 -6z m-1789 -24 c3 -5 -1 -10 -9 -10 -9 0 -16 5 -16 10 0 6 4 10
9 10 6 0 13 -4 16 -10z m-45 -10 c0 -5 -6 -10 -14 -10 -8 0 -18 5 -21 10 -3 6
3 10 14 10 12 0 21 -4 21 -10z m-144 -62 c-3 -13 -6 -28 -6 -35 0 -7 -7 -10
-15 -7 -18 7 -20 50 -2 57 24 10 29 7 23 -15z m44 1 c0 -6 -4 -7 -10 -4 -5 3
-10 11 -10 16 0 6 5 7 10 4 6 -3 10 -11 10 -16z m-720 -66 c0 -10 3 -28 6 -39
3 -13 0 -23 -8 -26 -9 -4 -14 7 -16 38 -1 25 2 44 8 44 5 0 10 -8 10 -17z
m3234 -139 c50 -5 64 -9 51 -16 -9 -6 -27 -7 -41 -4 -14 4 -24 2 -24 -4 0 -6
-5 -8 -12 -4 -6 4 -37 6 -69 5 -67 -3 -153 18 -123 30 20 8 106 5 218 -7z
m-1874 -164 c17 -10 14 -15 -17 -24 -19 -6 -23 -3 -23 13 0 22 16 27 40 11z
m1565 -75 c33 -7 78 -17 100 -20 37 -6 131 -50 165 -78 26 -21 69 -83 76 -111
5 -22 3 -28 -15 -33 -11 -3 -21 -12 -21 -19 0 -8 -11 -37 -25 -64 -32 -63 -31
-73 3 -53 36 20 56 13 77 -28 14 -26 15 -36 4 -60 -10 -25 -16 -29 -46 -27
-36 2 -56 19 -68 57 -7 23 -7 23 -27 -10 -29 -48 -79 -82 -105 -72 -7 3 -13
10 -13 17 0 6 -18 24 -40 39 -39 28 -40 28 -57 8 -9 -11 -20 -18 -25 -15 -4 3
-8 0 -8 -6 0 -6 -4 -9 -9 -5 -9 5 -51 -44 -51 -59 0 -3 16 -24 36 -46 23 -26
45 -40 60 -40 21 0 24 -3 18 -26 -5 -19 -4 -25 5 -20 6 4 9 11 6 16 -5 9 18
20 42 20 16 0 16 2 -3 -118 -4 -26 3 -66 20 -126 26 -90 26 -106 0 -106 -15 0
-19 -12 -7 -23 3 -4 12 -2 19 4 15 12 29 -5 20 -26 -2 -7 -1 -15 4 -17 5 -2
12 -39 16 -82 5 -53 4 -77 -3 -73 -19 12 -37 -78 -25 -125 11 -45 20 -101 28
-178 3 -25 10 -70 15 -100 15 -80 15 -82 0 -88 -8 -3 -11 0 -7 7 10 16 -3 51
-19 51 -15 0 -17 38 -2 57 5 7 4 19 -3 30 -10 16 -11 16 -6 1 3 -12 0 -18 -9
-18 -8 0 -15 -6 -15 -12 0 -7 -7 0 -15 16 -17 32 -19 39 -7 32 5 -3 6 8 4 25
-5 31 -22 41 -22 12 0 -13 -4 -11 -13 7 -11 21 -11 26 2 31 11 4 11 8 3 13 -7
4 -16 4 -22 1 -5 -3 -17 -2 -27 3 -15 9 -14 11 5 23 12 8 22 18 22 23 0 6 -5
5 -12 -2 -17 -17 -29 -15 -22 3 4 8 1 15 -6 15 -10 0 -10 3 0 15 14 16 6 35
-16 35 -20 0 -17 20 4 20 31 1 -27 40 -60 40 -24 0 -28 3 -23 19 3 11 1 22 -4
26 -7 3 -8 0 -5 -9 3 -9 1 -16 -5 -16 -6 0 -11 7 -11 15 0 8 -5 15 -10 15 -6
0 -8 -11 -4 -25 11 -43 -12 -27 -25 18 -24 78 -28 86 -50 80 -11 -3 -25 -11
-32 -19 -15 -18 -4 -45 15 -38 8 3 17 1 21 -5 3 -7 0 -8 -9 -5 -9 3 -16 1 -16
-6 0 -7 -5 -6 -15 4 -8 8 -15 21 -15 30 0 8 -4 18 -10 21 -16 10 -12 28 5 21
8 -3 15 -1 15 4 0 6 -4 10 -10 10 -5 0 -12 0 -15 0 -16 0 -40 39 -38 60 3 22
2 23 -6 5 -8 -17 -10 -18 -10 -2 -1 18 -16 23 -26 8 -3 -5 0 -13 6 -17 8 -4 7
-9 -2 -15 -10 -6 -11 -9 -1 -9 6 0 12 -5 12 -11 0 -5 -4 -8 -9 -4 -6 3 -14 -2
-19 -12 -9 -14 -14 -15 -36 -5 -27 12 -32 7 -16 -18 9 -13 10 -13 10 0 1 11 3
11 11 -3 13 -22 8 -30 -15 -21 -16 6 -21 22 -18 57 1 10 -3 15 -8 12 -6 -3
-11 -1 -11 4 -2 14 -4 22 -12 41 -3 8 -16 44 -28 80 -12 36 -31 73 -41 83 -11
11 -17 24 -15 30 5 15 67 16 85 3 9 -7 16 -6 22 3 4 8 13 10 19 7 6 -4 11 -2
11 3 0 6 7 11 15 11 8 0 15 -5 15 -11 0 -17 21 1 31 28 6 18 6 30 -2 39 -6 8
-8 14 -3 14 4 0 3 5 -4 12 -19 19 -14 29 12 22 34 -8 41 11 11 34 -14 11 -25
25 -25 31 0 6 -8 11 -19 11 -27 0 -24 44 5 71 17 15 21 26 14 34 -7 8 -1 21
20 43 36 38 49 81 29 96 -8 6 -35 40 -59 76 -24 36 -71 93 -103 127 l-60 61
34 34 c54 54 136 94 224 112 143 27 162 28 280 1z m-1695 1 c0 -2 -7 -9 -15
-16 -12 -10 -15 -10 -15 4 0 9 7 16 15 16 8 0 15 -2 15 -4z m1046 -291 c-32
-133 -32 -161 0 -238 21 -50 25 -69 18 -97 -5 -19 -13 -35 -19 -35 -5 0 -17
34 -25 75 -8 41 -19 81 -23 88 -10 15 -73 42 -90 38 -6 -1 -9 -1 -4 1 4 3 7
11 7 18 0 7 4 15 10 17 8 3 22 60 23 96 0 6 5 12 11 12 20 0 68 91 62 116 -5
17 2 31 21 51 l28 27 3 -31 c2 -18 -8 -80 -22 -138z m-1047 39 c-9 -11 -6 -18
12 -35 17 -14 20 -22 11 -26 -10 -4 -10 -8 -1 -19 9 -12 9 -13 -4 -9 -8 4 -18
2 -22 -4 -3 -6 2 -11 12 -11 17 -1 17 -2 -1 -15 -12 -9 -23 -11 -31 -5 -7 6
-15 2 -23 -11 -10 -16 -10 -19 4 -19 11 0 15 -6 11 -19 -3 -14 0 -17 13 -14
10 3 21 0 24 -6 5 -7 1 -8 -10 -4 -13 5 -16 3 -11 -9 6 -17 -22 -33 -72 -43
-24 -4 -54 -25 -37 -25 5 0 3 -7 -4 -15 -11 -13 -7 -15 28 -12 23 2 39 0 36
-4 -2 -4 0 -10 6 -14 5 -3 10 -1 10 4 0 6 5 11 12 11 6 0 9 -3 5 -6 -3 -3 -2
-16 2 -28 6 -14 4 -25 -6 -34 -11 -11 -11 -17 -2 -28 17 -20 28 -17 24 6 -5
24 12 37 28 21 9 -9 7 -10 -8 -5 -18 7 -19 6 -6 -10 13 -15 13 -19 0 -27 -20
-13 -26 -11 -47 11 -16 17 -21 18 -37 6 -20 -14 -12 -41 11 -32 14 5 47 -21
40 -32 -2 -4 2 -12 9 -19 11 -10 15 -10 18 0 3 7 6 4 6 -5 1 -10 6 -18 11 -18
6 0 10 -9 10 -20 0 -24 -27 -37 -43 -21 -15 15 -27 14 -27 -1 0 -8 16 -14 40
-16 22 -1 55 -11 73 -22 22 -13 41 -18 53 -13 17 6 17 5 5 -10 -14 -18 -2 -24
15 -7 7 7 19 4 36 -10 30 -23 42 -26 36 -7 -6 15 29 50 37 37 4 -6 1 -10 -6
-10 -8 0 -6 -7 5 -19 16 -17 16 -19 -4 -24 -11 -3 -20 -11 -20 -19 0 -11 2
-11 9 1 6 10 10 10 16 1 5 -8 21 -10 49 -6 29 4 37 3 26 -4 -9 -6 -10 -10 -3
-10 6 0 18 6 25 13 22 20 36 18 31 -4 -5 -18 -2 -19 23 -14 27 6 28 5 11 -8
-10 -8 -27 -12 -39 -9 -15 3 -19 2 -14 -7 4 -6 12 -9 17 -6 5 4 9 2 9 -4 0 -5
9 -13 20 -16 32 -10 25 -36 -7 -30 -16 2 -29 9 -31 14 -2 5 -18 7 -37 4 -29
-5 -41 0 -77 31 -24 21 -55 40 -70 43 -15 3 -32 11 -38 18 -6 7 -20 10 -32 7
-12 -3 -26 1 -32 9 -6 8 -20 16 -31 17 -11 2 -29 12 -40 22 -14 13 -29 17 -48
13 -19 -4 -32 0 -40 11 -7 10 -20 18 -29 19 -9 2 -38 21 -64 42 -76 63 -107
81 -168 100 -55 17 -57 19 -35 31 13 7 27 10 31 8 5 -3 8 0 8 5 0 16 -23 13
-46 -4 -10 -8 -35 -15 -54 -16 -34 -2 -34 -2 -5 -6 17 -3 35 -9 40 -15 7 -6
-3 -7 -29 -2 -28 5 -37 4 -32 -5 4 -6 22 -11 40 -11 18 0 36 -3 40 -7 4 -4 13
-8 19 -8 7 0 13 -4 13 -10 1 -5 -3 -9 -9 -7 -7 2 -6 -2 1 -11 16 -19 3 -30
-16 -14 -13 10 -14 8 -8 -11 8 -25 4 -27 -27 -10 -31 17 -87 18 -87 1 0 -7 8
-13 18 -13 16 -1 16 -1 0 -14 -10 -7 -18 -18 -18 -25 0 -12 -27 -11 -47 2 -7
5 -21 -1 -32 -12 -11 -11 -23 -16 -26 -11 -11 17 -45 12 -38 -6 4 -10 -1 -17
-16 -21 -11 -3 -18 -10 -14 -16 3 -5 2 -7 -4 -4 -21 13 -93 -35 -168 -110 -74
-74 -76 -76 -52 -33 39 67 131 189 140 183 4 -2 7 3 7 12 0 9 4 14 9 11 5 -3
44 23 87 59 42 36 83 65 90 65 7 0 16 4 19 10 16 25 -66 -19 -145 -78 l-45
-34 45 42 c25 24 68 58 95 75 28 18 57 41 65 50 8 10 35 32 60 49 55 37 229
174 345 271 52 43 95 71 110 71 21 2 24 -1 14 -12z m-549 -14 c0 -5 -4 -10
-10 -10 -5 0 -10 5 -10 10 0 6 5 10 10 10 6 0 10 -4 10 -10z m2730 -156 c0
-13 -4 -24 -10 -24 -14 0 -40 55 -40 82 1 23 1 23 25 -5 14 -15 25 -39 25 -53z
m-1326 -46 c-3 -4 -13 -8 -24 -8 -13 0 -17 5 -13 19 4 17 8 18 23 8 10 -6 16
-15 14 -19z m94 -109 c3 -19 -49 -42 -73 -33 -18 7 -20 40 -2 48 25 10 72 1
75 -15z m-918 -14 c0 -8 -4 -15 -10 -15 -5 0 -7 7 -4 15 4 8 8 15 10 15 2 0 4
-7 4 -15z m1900 -132 c0 -7 -7 -13 -15 -13 -16 0 -48 54 -38 64 9 8 53 -34 53
-51z m-2245 -12 c1 -10 -5 -18 -12 -18 -14 0 -16 7 -7 32 8 19 17 12 19 -14z
m45 -21 c0 -5 -4 -10 -9 -10 -6 0 -13 5 -16 10 -3 6 1 10 9 10 9 0 16 -4 16
-10z m1397 -12 c-3 -8 -6 -5 -6 6 -1 11 2 17 5 13 3 -3 4 -12 1 -19z m12 -68
c0 -9 -4 -8 -9 5 -5 11 -9 27 -9 35 0 9 4 8 9 -5 5 -11 9 -27 9 -35z m-1049 9
c0 -4 -7 -6 -15 -3 -8 4 -15 10 -15 15 0 4 7 6 15 3 8 -4 15 -10 15 -15z m35
11 c3 -5 1 -10 -4 -10 -6 0 -11 5 -11 10 0 6 2 10 4 10 3 0 8 -4 11 -10z m850
-8 c-3 -3 -11 0 -18 7 -9 10 -8 11 6 5 10 -3 15 -9 12 -12z m-811 0 c3 -5 -1
-9 -9 -9 -8 0 -12 4 -9 9 3 4 7 8 9 8 2 0 6 -4 9 -8z m286 -16 c0 -2 -7 -7
-16 -10 -8 -3 -12 -2 -9 4 6 10 25 14 25 6z m-1006 -15 c3 -5 -1 -11 -9 -14
-9 -4 -12 -1 -8 9 6 16 10 17 17 5z m-47 -17 c-3 -3 -12 -4 -19 -1 -8 3 -5 6
6 6 11 1 17 -2 13 -5z m917 -10 c3 -7 -2 -10 -15 -7 -22 6 -26 20 -4 20 8 0
16 -6 19 -13z m66 1 c0 -2 -7 -5 -15 -9 -9 -3 -15 0 -15 9 0 9 6 12 15 9 8 -4
15 -7 15 -9z m200 5 c0 -5 -5 -10 -11 -10 -5 0 -7 5 -4 10 3 6 8 10 11 10 2 0
4 -4 4 -10z m30 -1 c0 8 3 12 6 8 3 -3 -3 -18 -13 -34 -11 -15 -22 -33 -24
-40 -3 -8 -7 -7 -16 2 -9 10 -7 17 8 33 10 12 19 27 19 34 0 9 3 9 10 -2 8
-12 10 -12 10 -1z m46 -4 c-5 -15 -3 -16 36 -18 13 -1 31 -8 41 -17 16 -14 16
-15 -10 -22 -35 -9 -75 0 -66 16 4 7 1 6 -9 -1 -8 -7 -19 -9 -23 -5 -5 4 -5 1
-1 -5 4 -8 1 -13 -8 -13 -20 0 -21 29 -1 36 8 4 15 15 15 25 0 11 7 19 16 19
10 0 14 -6 10 -15z m-254 -27 c-8 -8 -9 -4 -5 13 4 13 8 18 11 10 2 -7 -1 -18
-6 -23z m25 0 c-3 -8 -6 -5 -6 6 -1 11 2 17 5 13 3 -3 4 -12 1 -19z m-137 8
c0 -3 -4 -8 -10 -11 -5 -3 -10 -1 -10 4 0 6 5 11 10 11 6 0 10 -2 10 -4z m250
-26 c0 -11 -1 -20 -3 -20 -1 0 -10 9 -20 20 -16 19 -16 20 3 20 13 0 20 -7 20
-20z m-66 -11 c-8 -14 -24 -10 -24 6 0 9 6 12 15 9 8 -4 12 -10 9 -15z m36 1
c0 -5 -5 -10 -11 -10 -5 0 -7 5 -4 10 3 6 8 10 11 10 2 0 4 -4 4 -10z m-1250
-9 c0 -5 -4 -11 -8 -13 -5 -1 -28 -31 -52 -65 -24 -35 -46 -61 -48 -59 -2 3
10 25 27 50 17 24 31 48 31 52 0 11 32 44 42 44 4 0 8 -4 8 -9z m1408 -10 c11
-7 10 -9 -3 -14 -9 -4 -14 -3 -10 2 3 5 -1 12 -7 14 -7 3 -8 6 -3 6 6 0 16 -3
23 -8z m-233 -11 c-3 -5 -1 -10 5 -10 6 0 8 -5 4 -11 -4 -8 -9 -7 -15 2 -12
19 -11 29 2 29 5 0 7 -4 4 -10z m100 0 c3 -5 1 -10 -4 -10 -6 0 -11 5 -11 10
0 6 2 10 4 10 3 0 8 -4 11 -10z m88 3 c-7 -2 -13 -9 -13 -15 0 -6 7 -7 16 -4
8 3 12 2 9 -4 -3 -6 -20 -10 -36 -10 -26 0 -30 -3 -27 -22 2 -17 -2 -23 -14
-22 -10 1 -18 -2 -18 -8 0 -5 -5 -6 -11 -3 -6 5 -4 12 7 20 15 11 13 13 -19
19 -21 4 -37 11 -37 16 0 13 17 13 25 0 3 -5 16 -10 28 -9 21 0 21 1 2 9 -17
6 -14 9 18 15 20 4 40 11 43 16 3 5 13 9 22 8 11 0 12 -3 5 -6z m-1312 -59
c-24 -31 -51 -40 -51 -18 0 9 4 12 10 9 6 -3 7 1 4 9 -4 11 0 16 10 16 9 0 19
7 23 16 4 10 9 12 16 5 6 -6 2 -19 -12 -37z m1366 11 c0 -8 -4 -12 -9 -9 -5 3
-6 10 -3 15 9 13 12 11 12 -6z m142 -23 c-5 -2 -17 -1 -27 3 -13 5 -14 8 -3
15 8 5 19 3 26 -3 7 -7 9 -14 4 -15z m-499 9 c0 -5 -7 -11 -15 -15 -15 -5 -20
5 -8 17 9 10 23 9 23 -2z m146 -16 c19 -14 18 -14 -3 -15 -13 0 -23 -5 -23
-11 0 -5 -4 -7 -10 -4 -15 9 -12 45 3 45 7 0 22 -7 33 -15z m171 -2 c-4 -3 -1
-13 6 -22 11 -14 10 -14 -5 -2 -16 12 -16 31 -1 31 4 0 3 -3 0 -7z m228 -3 c3
-6 -1 -7 -9 -4 -18 7 -21 14 -7 14 6 0 13 -4 16 -10z m-1595 -27 c0 -5 -51
-74 -61 -83 -3 -3 -20 -34 -38 -70 -18 -36 -43 -85 -57 -110 -20 -38 -74 -154
-79 -170 -1 -3 -13 -30 -27 -60 -15 -30 -30 -68 -33 -83 -8 -31 -25 -46 -25
-23 0 9 -7 16 -15 16 -24 0 -17 26 10 38 14 6 25 17 25 24 0 7 27 69 61 138
82 168 100 202 115 221 8 8 14 21 14 27 0 7 4 12 10 12 5 0 7 6 5 13 -3 6 6
24 19 38 14 15 23 29 20 32 -2 2 2 10 11 17 8 7 15 19 15 26 0 8 6 11 15 8 8
-4 15 -8 15 -11z m1670 -3 c0 -5 -2 -10 -4 -10 -3 0 -8 5 -11 10 -3 6 -1 10 4
10 6 0 11 -4 11 -10z m-301 -24 c-2 -2 -18 -7 -34 -11 l-30 -6 30 14 c27 13
45 14 34 3z m15 -25 c-9 -18 -18 -30 -21 -28 -2 3 3 19 12 37 9 18 18 30 21
28 2 -3 -3 -19 -12 -37z m64 32 c-10 -2 -18 -9 -18 -15 0 -6 -3 -9 -6 -5 -10
10 6 27 24 26 15 -1 15 -2 0 -6z m162 -13 c0 -5 -5 -10 -11 -10 -5 0 -7 5 -4
10 3 6 8 10 11 10 2 0 4 -4 4 -10z m114 -2 c-3 -4 -9 -8 -15 -8 -5 0 -9 4 -9
8 0 5 7 9 15 9 8 0 12 -4 9 -9z m-430 -21 c-2 -7 -13 -13 -24 -14 -16 -1 -17
1 -7 12 15 18 38 19 31 2z m826 9 c0 -2 -7 -7 -16 -10 -8 -3 -12 -2 -9 4 6 10
25 14 25 6z m-2544 -78 c74 -111 74 -111 91 -90 11 15 12 13 3 -11 -5 -16 -10
-57 -10 -92 0 -59 -1 -63 -26 -69 -31 -8 -28 -10 -43 33 -7 23 -8 38 -1 46 5
6 7 15 3 18 -3 4 -2 7 3 7 5 0 8 19 6 41 -3 32 -14 51 -46 84 -60 63 -68 75
-62 91 11 29 35 12 82 -58z m1832 47 c-3 -3 -9 2 -12 12 -6 14 -5 15 5 6 7 -7
10 -15 7 -18z m117 15 c3 -5 -1 -10 -10 -10 -9 0 -13 5 -10 10 3 6 8 10 10 10
2 0 7 -4 10 -10z m574 -20 c19 0 64 -58 75 -96 5 -16 1 -23 -14 -27 -13 -3
-20 -1 -17 6 2 6 -4 19 -12 29 -18 20 -55 25 -48 6 2 -7 10 -13 18 -13 8 0 17
-7 20 -15 8 -19 -11 -50 -30 -50 -21 0 -51 30 -51 52 0 10 -4 18 -10 18 -5 0
-10 5 -10 10 0 6 7 10 15 10 8 0 15 5 15 11 0 8 4 8 13 1 8 -7 18 -8 27 -1 13
8 12 12 -4 24 -11 8 -26 15 -33 15 -20 0 -16 28 5 32 9 2 19 0 20 -4 2 -4 12
-8 21 -8z m-1141 -20 c6 0 12 -5 12 -11 0 -5 -4 -7 -10 -4 -5 3 -10 3 -10 -2
0 -13 14 -30 30 -36 12 -4 12 -6 -2 -6 -9 -1 -23 8 -31 20 -11 15 -16 17 -20
7 -3 -7 -6 -3 -6 9 -1 12 -7 24 -13 27 -7 4 -2 4 12 1 14 -2 31 -5 38 -5z
m458 -7 c0 -10 5 -17 12 -15 18 3 26 -23 13 -45 -9 -15 -10 -13 -5 12 6 29 6
29 -11 10 -13 -16 -16 -17 -11 -3 3 10 1 20 -4 23 -6 4 -10 -2 -11 -12 0 -16
-1 -16 -8 2 -4 11 -3 25 3 32 16 17 24 16 22 -4z m112 -14 c-3 -8 -7 -3 -11
10 -4 17 -3 21 5 13 5 -5 8 -16 6 -23z m159 9 c-3 -8 -6 -5 -6 6 -1 11 2 17 5
13 3 -3 4 -12 1 -19z m-134 -13 c-3 -9 -8 -14 -10 -11 -3 3 -2 9 2 15 9 16 15
13 8 -4z m377 -16 c0 -14 -17 -10 -23 5 -4 10 -1 13 9 9 7 -3 14 -9 14 -14z
m-295 -8 c-3 -6 -11 -8 -17 -5 -6 4 -5 9 3 15 16 10 23 4 14 -10z m-575 -33
c0 -5 -4 -8 -10 -8 -5 0 -10 10 -10 23 0 18 2 19 10 7 5 -8 10 -18 10 -22z
m450 22 c0 -5 -4 -10 -10 -10 -5 0 -10 5 -10 10 0 6 5 10 10 10 6 0 10 -4 10
-10z m70 6 c0 -2 -7 -7 -16 -10 -8 -3 -12 -2 -9 4 6 10 25 14 25 6z m-585 -27
c4 -5 -5 -9 -19 -9 -14 0 -26 4 -26 8 0 11 39 12 45 1z m655 1 c0 -5 -4 -10
-10 -10 -5 0 -10 5 -10 10 0 6 5 10 10 10 6 0 10 -4 10 -10z m190 6 c0 -2 -7
-7 -16 -10 -8 -3 -12 -2 -9 4 6 10 25 14 25 6z m406 -22 c-18 -17 -26 -18 -26
-1 0 7 9 13 20 14 18 2 18 0 6 -13z m-333 -13 c3 -14 1 -18 -10 -14 -8 3 -18
0 -23 -6 -5 -10 -9 -9 -13 3 -5 11 -1 16 13 16 11 0 20 5 20 10 0 17 7 11 13
-9z m57 9 c0 -5 -4 -10 -10 -10 -5 0 -10 5 -10 10 0 6 5 10 10 10 6 0 10 -4
10 -10z m-135 -20 c-3 -4 -14 -10 -25 -13 -16 -4 -19 -2 -11 7 11 13 43 18 36
6z m535 -10 c0 -5 -7 -10 -15 -10 -8 0 -15 5 -15 10 0 6 7 10 15 10 8 0 15 -4
15 -10z m-2832 -55 c-11 -12 -38 8 -38 28 l0 21 22 -21 c12 -13 19 -25 16 -28z
m2606 -14 c-2 -2 -13 4 -24 14 -18 17 -20 17 -20 1 0 -9 -4 -14 -10 -11 -18
11 -10 34 13 37 20 3 53 -29 41 -41z m36 39 c0 -5 -7 -7 -15 -4 -8 4 -15 8
-15 10 0 2 7 4 15 4 8 0 15 -4 15 -10z m209 -38 l0 -27 -10 24 c-5 14 -15 32
-22 40 -10 12 -9 13 11 2 15 -8 22 -21 21 -39z m-79 34 c0 -11 -19 -15 -25 -6
-3 5 1 10 9 10 9 0 16 -2 16 -4z m45 -26 c3 -6 -1 -7 -9 -4 -18 7 -21 14 -7
14 6 0 13 -4 16 -10z m-173 -29 c-7 -4 -14 -17 -14 -28 -3 -27 -24 -47 -32
-28 -3 8 -1 15 3 15 5 0 12 7 15 16 5 13 3 14 -6 7 -7 -5 -19 -8 -25 -7 -7 1
-23 2 -35 4 -13 1 1 8 32 15 70 16 78 17 62 6z m-232 -71 c0 -11 -2 -20 -4
-20 -2 0 -6 9 -9 20 -3 11 -1 20 4 20 5 0 9 -9 9 -20z m520 -27 c-1 -18 -18
-35 -24 -24 -4 6 -4 16 -1 21 7 12 25 13 25 3z m-460 -97 c0 -3 -4 -8 -10 -11
-5 -3 -10 -1 -10 4 0 6 5 11 10 11 6 0 10 -2 10 -4z"/>
<path d="M1342 2484 c-27 -19 -28 -46 -2 -101 24 -53 40 -55 40 -5 0 50 9 60
48 55 32 -5 41 -16 22 -28 -5 -3 -10 -24 -10 -46 0 -33 4 -41 26 -49 35 -14
37 -13 20 12 -13 19 -13 25 0 57 12 29 13 38 2 46 -7 6 -18 19 -24 30 -6 11
-22 22 -35 23 -13 2 -28 8 -33 13 -14 13 -28 11 -54 -7z"/>
<path d="M2680 2431 c0 -56 12 -66 28 -23 20 50 19 67 -5 70 -21 3 -23 0 -23
-47z"/>
<path d="M2122 2304 c-13 -9 -29 -13 -36 -11 -11 4 -13 -3 -10 -31 7 -52 -6
-65 -67 -68 -70 -3 -91 -25 -97 -99 l-5 -56 29 6 c16 4 81 8 144 11 63 2 163
8 223 12 81 6 113 4 132 -6 15 -8 25 -9 25 -2 0 5 7 10 15 10 8 0 18 12 21 27
10 38 -14 76 -56 86 -68 18 -86 28 -104 62 -15 27 -16 38 -7 49 9 11 9 16 0
22 -11 6 -48 -30 -49 -48 0 -5 -11 -8 -25 -8 -18 0 -28 7 -34 24 -15 38 -60
47 -99 20z"/>
<path d="M1721 2094 c0 -11 3 -14 6 -6 3 7 2 16 -1 19 -3 4 -6 -2 -5 -13z"/>
<path d="M2087 1993 c-4 -3 -7 -19 -7 -35 0 -31 49 -93 82 -103 10 -4 16 -11
13 -16 -10 -15 7 -10 19 7 14 18 43 10 49 -14 3 -11 5 -9 6 7 1 16 6 21 15 18
18 -7 96 80 96 107 0 20 -6 21 -118 24 -64 1 -124 5 -133 7 -8 3 -18 2 -22 -2z"/>
<path d="M2640 1522 c0 -5 25 -36 55 -69 l54 -60 64 -2 c80 -2 104 13 90 55
-7 20 -17 30 -34 32 -13 2 -33 7 -44 12 -11 4 -47 11 -79 14 -32 3 -64 10 -69
15 -13 13 -37 14 -37 3z"/>
<path d="M2960 1054 c0 -8 5 -12 10 -9 6 4 8 11 5 16 -9 14 -15 11 -15 -7z"/>
<path d="M2979 1038 c-1 -2 -3 -12 -4 -23 -1 -11 -5 -35 -9 -52 -5 -22 -4 -33
3 -33 6 0 28 -35 49 -77 37 -78 62 -103 62 -64 0 12 -5 21 -11 21 -6 0 -8 9
-4 20 3 11 2 20 -3 20 -5 0 -12 8 -16 18 -3 9 -9 23 -12 31 -4 8 -2 11 3 8 6
-4 8 5 6 21 -8 50 -54 129 -64 110z"/>
<path d="M3080 979 c-9 -5 -10 -9 -4 -9 7 0 11 -7 10 -16 0 -9 5 -19 12 -21 7
-3 12 5 12 21 0 29 -10 38 -30 25z"/>
<path d="M3100 911 c0 -5 5 -13 10 -16 6 -3 10 -15 10 -26 0 -10 5 -19 10 -19
14 0 13 -33 -2 -48 -9 -9 -9 -15 0 -24 9 -9 12 -8 12 5 0 9 5 17 10 17 25 0
-8 113 -34 118 -9 2 -16 -1 -16 -7z"/>
<path d="M2640 839 c0 -5 5 -7 10 -4 6 3 10 8 10 11 0 2 -4 4 -10 4 -5 0 -10
-5 -10 -11z"/>
<path d="M2740 830 c0 -5 5 -10 11 -10 5 0 7 5 4 10 -3 6 -8 10 -11 10 -2 0
-4 -4 -4 -10z"/>
<path d="M2676 785 c11 -8 14 -14 6 -15 -9 0 -8 -7 4 -25 10 -15 12 -25 5 -25
-6 0 -11 -8 -11 -17 0 -14 3 -13 16 5 13 18 13 26 3 38 -6 8 -9 17 -6 21 8 8
-12 33 -26 33 -6 0 -2 -7 9 -15z"/>
<path d="M2710 791 c0 -10 19 -25 25 -20 1 2 -3 10 -11 17 -8 7 -14 8 -14 3z"/>
<path d="M2800 780 c0 -5 4 -10 9 -10 6 0 13 5 16 10 3 6 -1 10 -9 10 -9 0
-16 -4 -16 -10z"/>
<path d="M2755 760 c3 -5 10 -10 16 -10 5 0 9 5 9 10 0 6 -7 10 -16 10 -8 0
-12 -4 -9 -10z"/>
<path d="M2836 739 c3 -6 0 -16 -7 -21 -11 -8 -10 -8 4 -4 10 3 23 6 29 6 6 0
6 6 -2 15 -14 17 -35 21 -24 4z"/>
<path d="M2785 720 c3 -5 8 -10 11 -10 2 0 4 5 4 10 0 6 -5 10 -11 10 -5 0 -7
-4 -4 -10z"/>
<path d="M2840 685 c0 -9 -6 -12 -17 -8 -13 5 -15 2 -10 -11 4 -10 7 -23 7
-29 0 -7 5 -4 11 6 6 10 15 14 22 10 13 -8 19 -10 43 -12 12 -1 14 -8 10 -28
-9 -43 6 -60 40 -44 19 8 24 15 16 20 -7 4 -13 19 -14 34 -1 14 -4 24 -7 22
-2 -3 -10 3 -17 13 -8 10 -13 12 -14 5 0 -7 -7 -13 -16 -13 -14 0 -14 3 -3 16
11 13 9 14 -16 8 -24 -6 -27 -4 -22 10 4 9 2 16 -3 16 -6 0 -10 -7 -10 -15z
m100 -69 c0 -8 -4 -18 -10 -21 -5 -3 -10 3 -10 14 0 12 5 21 10 21 6 0 10 -6
10 -14z"/>
<path d="M2960 691 c0 -6 5 -13 10 -16 6 -3 10 1 10 9 0 9 -4 16 -10 16 -5 0
-10 -4 -10 -9z"/>
<path d="M2983 625 c-10 -10 -9 -16 2 -25 16 -14 30 3 18 24 -7 11 -10 12 -20
1z"/>
<path d="M3075 509 c-4 -6 -5 -12 -2 -15 2 -3 7 2 10 11 7 17 1 20 -8 4z"/>
<path d="M3090 471 c0 -5 5 -13 10 -16 6 -3 10 -2 10 4 0 5 -4 13 -10 16 -5 3
-10 2 -10 -4z"/>
<path d="M3120 350 c0 -5 4 -10 9 -10 6 0 13 5 16 10 3 6 -1 10 -9 10 -9 0
-16 -4 -16 -10z"/>
<path d="M1330 1500 c-9 -6 -10 -10 -3 -10 6 0 15 5 18 10 8 12 4 12 -15 0z"/>
<path d="M1200 1266 c0 -2 6 -9 14 -15 10 -9 15 -8 19 2 3 8 -3 13 -14 14 -10
1 -19 0 -19 -1z"/>
<path d="M1180 1200 c-12 -8 -11 -10 7 -10 12 0 25 5 28 10 8 13 -15 13 -35 0z"/>
<path d="M830 971 c0 -5 7 -11 15 -15 8 -3 15 -1 15 3 0 5 -7 11 -15 15 -8 3
-15 1 -15 -3z"/>
<path d="M1235 970 c3 -5 8 -10 11 -10 2 0 4 5 4 10 0 6 -5 10 -11 10 -5 0 -7
-4 -4 -10z"/>
<path d="M760 960 c0 -5 7 -10 15 -10 8 0 15 5 15 10 0 6 -7 10 -15 10 -8 0
-15 -4 -15 -10z"/>
<path d="M1390 930 c0 -5 5 -10 10 -10 6 0 10 5 10 10 0 6 -4 10 -10 10 -5 0
-10 -4 -10 -10z"/>
<path d="M1667 789 c7 -7 15 -10 18 -7 3 3 -2 9 -12 12 -14 6 -15 5 -6 -5z"/>
<path d="M3006 3969 c39 -41 237 -135 354 -167 162 -45 389 -30 550 35 36 15
71 31 78 36 7 6 12 33 12 68 0 56 -1 59 -24 59 -13 0 -26 -6 -29 -14 -6 -15
-47 -11 -47 5 0 5 -201 9 -462 9 l-462 0 30 -31z m717 -54 c-6 -16 -16 -19
-26 -8 -9 8 13 34 24 28 4 -3 6 -12 2 -20z"/>
<path d="M1930 3640 c0 -13 7 -20 20 -20 23 0 26 10 8 28 -18 18 -28 15 -28
-8z"/>
<path d="M1285 3483 c4 -10 10 -29 12 -43 10 -60 14 -70 28 -70 16 0 18 8 16
50 -3 45 -22 80 -43 80 -15 0 -18 -4 -13 -17z"/>
<path d="M1020 3246 c0 -8 4 -17 9 -20 10 -7 23 19 14 28 -11 11 -23 6 -23 -8z"/>
<path d="M1002 3023 c1 -10 -2 -34 -5 -53 -5 -25 -3 -42 7 -55 14 -19 15 -19
24 6 11 28 -3 119 -18 119 -5 0 -8 -8 -8 -17z"/>
</g>
</svg>
